<svg width="17" height="17" viewBox="0 0 17 17" fill="none" xmlns="http://www.w3.org/2000/svg">
<path d="M8.10039 9.78896C8.77567 9.78896 9.32309 9.24213 9.32309 8.56758C9.32309 7.89302 8.77567 7.34619 8.10039 7.34619C7.42511 7.34619 6.87769 7.89302 6.87769 8.56758C6.87769 9.24213 7.42511 9.78896 8.10039 9.78896Z" fill="#D9E1FA"/>
<path d="M13.8776 9.78896C14.5529 9.78896 15.1003 9.24213 15.1003 8.56758C15.1003 7.89302 14.5529 7.34619 13.8776 7.34619C13.2023 7.34619 12.6549 7.89302 12.6549 8.56758C12.6549 9.24213 13.2023 9.78896 13.8776 9.78896Z" fill="#D9E1FA"/>
<path d="M2.32305 9.78896C2.99833 9.78896 3.54575 9.24213 3.54575 8.56758C3.54575 7.89302 2.99833 7.34619 2.32305 7.34619C1.64776 7.34619 1.10034 7.89302 1.10034 8.56758C1.10034 9.24213 1.64776 9.78896 2.32305 9.78896Z" fill="#D9E1FA"/>
</svg>
