<svg width="13" height="13" viewBox="0 0 13 13" fill="none" xmlns="http://www.w3.org/2000/svg">
<path d="M5.71944 1.45019C5.88097 1.17286 6.28162 1.17285 6.44315 1.45018L8.15446 4.38831C8.21363 4.4899 8.31278 4.56194 8.42768 4.58682L11.7508 5.30644C12.0645 5.37436 12.1883 5.7554 11.9745 5.99472L9.70896 8.5302C9.63063 8.61787 9.59276 8.73443 9.6046 8.8514L9.94711 12.2343C9.97944 12.5536 9.65531 12.7891 9.36162 12.6597L6.25016 11.2885C6.14258 11.2411 6.02002 11.2411 5.91244 11.2885L2.80098 12.6597C2.50729 12.7891 2.18315 12.5536 2.21548 12.2343L2.558 8.8514C2.56984 8.73443 2.53197 8.61787 2.45363 8.5302L0.188133 5.99472C-0.0257075 5.7554 0.0980992 5.37436 0.411771 5.30644L3.73491 4.58682C3.84982 4.56194 3.94897 4.4899 4.00814 4.38831L5.71944 1.45019Z" fill="#AEB9E1"/>
</svg>
