<svg width="71" height="71" viewBox="0 0 71 71" fill="none" xmlns="http://www.w3.org/2000/svg">
<circle cx="35.2041" cy="35.2041" r="34.5" fill="#091C61" stroke="#7466F1" stroke-width="1.40816"/>
<g clip-path="url(#clip0_5401_10233)">
<path d="M31.0781 52.6931C34.2417 52.6931 36.8092 50.1255 36.8092 46.9619V41.2308H31.0781C27.9145 41.2308 25.3469 43.7983 25.3469 46.9619C25.3469 50.1255 27.9145 52.6931 31.0781 52.6931Z" fill="#0ACF83"/>
<path d="M25.3469 35.4996C25.3469 32.336 27.9145 29.7685 31.0781 29.7685H36.8092V41.2308H31.0781C27.9145 41.2308 25.3469 38.6632 25.3469 35.4996Z" fill="#A259FF"/>
<path d="M25.3469 24.0372C25.3469 20.8736 27.9145 18.3061 31.0781 18.3061H36.8092V29.7684H31.0781C27.9145 29.7684 25.3469 27.2008 25.3469 24.0372Z" fill="#F24E1E"/>
<path d="M36.8091 18.3061H42.5402C45.7038 18.3061 48.2714 20.8736 48.2714 24.0372C48.2714 27.2008 45.7038 29.7684 42.5402 29.7684H36.8091V18.3061Z" fill="#FF7262"/>
<path d="M48.2714 35.4996C48.2714 38.6632 45.7038 41.2308 42.5402 41.2308C39.3766 41.2308 36.8091 38.6632 36.8091 35.4996C36.8091 32.336 39.3766 29.7685 42.5402 29.7685C45.7038 29.7685 48.2714 32.336 48.2714 35.4996Z" fill="#1ABCFE"/>
</g>
<defs>
<clipPath id="clip0_5401_10233">
<rect width="22.9246" height="34.3869" fill="white" transform="translate(25.3468 18.3061)"/>
</clipPath>
</defs>
</svg>
