<svg width="11" height="13" viewBox="0 0 11 13" fill="none" xmlns="http://www.w3.org/2000/svg">
<path d="M3.93126 1.57004H6.50271C6.61637 1.57004 6.72538 1.52489 6.80575 1.44451C6.88613 1.36414 6.93128 1.25513 6.93128 1.14147C6.93128 1.0278 6.88613 0.91879 6.80575 0.838417C6.72538 0.758044 6.61637 0.712891 6.50271 0.712891H3.93126C3.81759 0.712891 3.70859 0.758044 3.62821 0.838417C3.54784 0.91879 3.50269 1.0278 3.50269 1.14147C3.50269 1.25513 3.54784 1.36414 3.62821 1.44451C3.70859 1.52489 3.81759 1.57004 3.93126 1.57004V1.57004Z" fill="#AEB9E1"/>
<path d="M5.21711 2.427C4.19995 2.427 3.20562 2.72863 2.35988 3.29374C1.51413 3.85884 0.854954 4.66205 0.4657 5.60179C0.0764471 6.54154 -0.0253993 7.5756 0.17304 8.57322C0.37148 9.57085 0.861293 10.4872 1.58054 11.2065C2.29979 11.9257 3.21616 12.4155 4.21379 12.614C5.21141 12.8124 6.24547 12.7106 7.18521 12.3213C8.12495 11.9321 8.92816 11.2729 9.49327 10.4271C10.0584 9.58139 10.36 8.58706 10.36 7.56989C10.3572 6.20678 9.81443 4.90031 8.85056 3.93645C7.88669 2.97258 6.58022 2.42983 5.21711 2.427V2.427ZM7.64392 5.75381L5.52247 7.87525C5.44056 7.95446 5.33106 7.99874 5.21711 7.99874C5.10316 7.99874 4.99367 7.95446 4.91175 7.87525C4.83128 7.794 4.78613 7.68426 4.78613 7.56989C4.78613 7.45553 4.83128 7.34579 4.91175 7.26454L7.0332 5.14309C7.07162 5.09627 7.11943 5.05801 7.17353 5.03078C7.22764 5.00355 7.28684 4.98795 7.34734 4.98498C7.40784 4.982 7.46828 4.99173 7.5248 5.01353C7.58131 5.03533 7.63263 5.06872 7.67546 5.11155C7.71829 5.15438 7.75168 5.2057 7.77348 5.26221C7.79528 5.31872 7.805 5.37917 7.80203 5.43967C7.79906 5.50017 7.78346 5.55937 7.75623 5.61348C7.72899 5.66758 7.69074 5.71538 7.64392 5.75381V5.75381Z" fill="#AEB9E1"/>
</svg>
